<?xml version="1.0" standalone="no"?>
<!DOCTYPE svg PUBLIC "-//W3C//DTD SVG 20010904//EN"
 "http://www.w3.org/TR/2001/REC-SVG-20010904/DTD/svg10.dtd">
<svg version="1.0" xmlns="http://www.w3.org/2000/svg"
 width="1024.000000pt" height="1024.000000pt" viewBox="0 0 1024.000000 1024.000000"
 preserveAspectRatio="xMidYMid meet">
<metadata>
Created by potrace 1.14, written by Peter Selinger 2001-2017
</metadata>
<g transform="translate(0.000000,1024.000000) scale(0.100000,-0.100000)"
fill="#000000" stroke="none">
<path d="M4250 8825 c-271 -46 -581 -174 -1215 -502 -670 -347 -1564 -822
-1724 -917 -192 -112 -281 -227 -304 -392 -12 -82 -11 -88 69 -569 50 -298 98
-545 156 -795 91 -395 123 -455 409 -757 435 -459 828 -859 1650 -1678 1001
-997 1498 -1481 1625 -1582 113 -90 226 -154 342 -194 96 -33 100 -34 272 -34
185 1 205 4 385 62 236 76 556 240 920 471 267 169 1421 954 1540 1047 155
121 285 269 352 399 14 27 41 89 59 138 41 105 227 714 325 1063 39 138 81
277 94 310 50 128 42 254 -24 380 -70 135 -348 400 -821 781 -266 215 -1251
1001 -1470 1174 -80 63 -212 171 -295 240 -498 418 -1332 1094 -1440 1167
-134 90 -306 159 -469 188 -106 18 -328 18 -436 0z m349 -35 c241 -28 452
-118 687 -296 51 -39 176 -142 276 -230 367 -320 1088 -911 1323 -1084 33 -24
222 -175 420 -335 708 -574 1162 -938 1280 -1028 142 -108 474 -435 530 -521
139 -214 86 -426 -170 -681 -231 -231 -598 -511 -1225 -935 -168 -113 -395
-272 -505 -351 -507 -369 -763 -518 -1040 -608 -203 -67 -265 -76 -485 -75
-168 0 -206 3 -273 22 -249 69 -450 191 -722 439 -66 60 -289 280 -497 489
-207 208 -535 539 -730 735 -194 195 -542 535 -773 754 -231 219 -577 556
-770 749 -192 194 -417 412 -499 485 -81 74 -175 166 -207 205 -187 226 -220
507 -79 685 69 87 157 141 705 434 1116 596 1631 860 1903 976 345 147 604
200 851 171z m-3303 -2420 c55 -52 156 -146 227 -209 70 -62 127 -117 127
-121 0 -18 573 -582 1055 -1040 565 -536 611 -581 1373 -1357 510 -519 644
-647 810 -770 186 -138 319 -205 511 -256 109 -29 127 -31 296 -30 148 0 198
4 285 22 354 76 606 207 1120 579 130 95 198 142 805 557 440 301 444 303 565
393 190 141 317 249 477 407 83 82 150 146 148 140 -2 -5 -32 -102 -65 -215
-177 -591 -269 -883 -314 -990 -105 -248 -248 -382 -833 -778 -575 -389 -793
-537 -903 -613 -126 -87 -410 -261 -587 -358 -550 -301 -928 -364 -1233 -205
-154 80 -371 279 -1180 1079 -2077 2054 -2421 2409 -2555 2631 -64 106 -110
277 -221 814 -30 146 -63 319 -75 385 -11 66 -23 131 -26 145 -3 16 13 -1 45
-45 27 -38 94 -113 148 -165z"/>
<path d="M4305 8695 c-318 -50 -633 -193 -1870 -849 -920 -489 -984 -525
-1074 -621 -80 -84 -105 -147 -109 -276 -6 -163 37 -280 159 -435 79 -100
1104 -1126 1519 -1519 361 -343 750 -730 1304 -1298 590 -604 758 -744 1028
-855 246 -102 544 -108 844 -17 263 80 492 208 874 490 69 51 373 262 675 470
737 507 824 573 1061 809 207 207 270 310 281 460 7 93 -9 168 -55 247 -47 82
-309 346 -517 520 -139 116 -820 665 -1515 1221 -162 130 -383 310 -491 400
-108 90 -270 225 -361 300 -91 75 -268 226 -394 335 -400 346 -514 435 -641
501 -217 113 -478 155 -718 117z m228 -42 c-23 -2 -64 -2 -90 0 -26 2 -7 3 42
3 50 0 71 -1 48 -3z m-180 -10 c-7 -2 -21 -2 -30 0 -10 3 -4 5 12 5 17 0 24
-2 18 -5z m295 0 c-10 -2 -26 -2 -35 0 -10 3 -2 5 17 5 19 0 27 -2 18 -5z
m-355 -10 c-7 -2 -21 -2 -30 0 -10 3 -4 5 12 5 17 0 24 -2 18 -5z m414 1 c-3
-3 -12 -4 -19 -1 -8 3 -5 6 6 6 11 1 17 -2 13 -5z m-470 -10 c-3 -3 -12 -4
-19 -1 -8 3 -5 6 6 6 11 1 17 -2 13 -5z m520 0 c-3 -3 -12 -4 -19 -1 -8 3 -5
6 6 6 11 1 17 -2 13 -5z m-570 -10 c-3 -3 -12 -4 -19 -1 -8 3 -5 6 6 6 11 1
17 -2 13 -5z m-70 -20 c-3 -3 -12 -4 -19 -1 -8 3 -5 6 6 6 11 1 17 -2 13 -5z
m461 -1 c-10 -2 -26 -2 -35 0 -10 3 -2 5 17 5 19 0 27 -2 18 -5z m322 -13 c8
-5 11 -10 5 -10 -5 0 -17 5 -25 10 -8 5 -10 10 -5 10 6 0 17 -5 25 -10z m-655
-40 c-27 -12 -43 -12 -25 0 8 5 22 9 30 9 10 0 8 -3 -5 -9z m415 -30 c0 -16
-3 -31 -7 -33 -5 -3 -8 12 -8 33 0 21 3 36 8 33 4 -2 7 -17 7 -33z m410 -15
c0 -3 -22 6 -50 20 -27 14 -50 28 -50 30 0 3 23 -6 50 -20 28 -14 50 -28 50
-30z m-475 -1 c1 -53 18 -74 64 -75 20 -1 48 -4 64 -8 l27 -6 -26 -37 c-19
-26 -25 -44 -20 -61 9 -38 51 -50 153 -42 110 9 120 2 95 -69 l-17 -48 28 -24
c24 -20 38 -24 99 -24 l71 0 51 -55 c58 -62 86 -75 160 -75 57 0 66 -9 66 -67
0 -40 37 -63 101 -63 72 0 83 -11 74 -83 -7 -51 -5 -55 20 -76 15 -11 39 -21
54 -21 14 0 43 -5 64 -11 34 -9 37 -13 37 -48 0 -56 24 -73 120 -81 115 -10
135 -33 108 -121 l-11 -39 -67 0 c-71 0 -159 -24 -242 -66 -45 -23 -47 -23
-53 -5 -11 36 -82 136 -141 200 -64 69 -156 135 -214 152 l-36 11 4 59 c10
142 -86 253 -229 266 -48 5 -59 10 -70 30 -30 56 -145 122 -211 123 l-38 0 0
53 c-1 90 -47 164 -131 208 -34 18 -60 23 -119 23 -89 0 -147 -22 -212 -82
-33 -31 -47 -38 -63 -31 -37 14 -129 9 -170 -10 -76 -35 -173 -163 -175 -231
-1 -17 -18 -40 -55 -73 l-53 -47 -7 32 c-14 66 -52 84 -98 48 -14 -11 -32 -17
-41 -14 -22 9 -46 -14 -46 -43 0 -14 -4 -22 -11 -18 -16 11 -49 -25 -49 -54 0
-30 23 -67 58 -95 l23 -18 -22 -24 -22 -23 -25 19 c-15 12 -40 20 -63 20 l-39
0 0 60 c0 66 -18 113 -50 130 -26 14 -57 5 -70 -20 -9 -16 -14 -18 -35 -8 -30
14 -55 -3 -55 -37 0 -30 -49 -42 -67 -17 -20 25 -16 46 15 74 34 32 55 43 142
72 58 20 83 36 140 90 72 68 75 69 194 81 74 7 129 31 198 85 73 58 105 70
193 70 92 0 125 13 218 85 65 51 75 56 107 50 109 -19 122 -18 180 19 41 27
64 35 90 34 34 -3 35 -4 35 -44z m168 -31 c-13 -2 -35 -2 -50 0 -16 2 -5 4 22
4 28 0 40 -2 28 -4z m-1023 -13 c-8 -5 -19 -10 -25 -10 -5 0 -3 5 5 10 8 5 20
10 25 10 6 0 3 -5 -5 -10z m1067 -42 c-3 -7 -5 -2 -5 12 0 14 2 19 5 13 2 -7
2 -19 0 -25z m-809 5 c-21 -2 -55 -2 -75 0 -21 2 -4 4 37 4 41 0 58 -2 38 -4z
m1213 -10 c13 -16 12 -17 -3 -4 -10 7 -18 15 -18 17 0 8 8 3 21 -13z m-1334 1
c-3 -3 -12 -4 -19 -1 -8 3 -5 6 6 6 11 1 17 -2 13 -5z m-277 -19 c-14 -8 -29
-14 -35 -14 -5 0 1 6 15 14 14 8 30 14 35 14 6 0 -1 -6 -15 -14z m936 -40 c42
-25 67 -55 85 -103 9 -26 8 -25 -17 7 -15 18 -50 44 -78 57 -84 39 -165 29
-239 -28 -31 -24 -41 -27 -52 -18 -22 18 -20 22 33 57 99 68 185 77 268 28z
m-991 15 c-3 -5 -12 -10 -18 -10 -7 0 -6 4 3 10 19 12 23 12 15 0z m1746 -17
c13 -16 12 -17 -3 -4 -10 7 -18 15 -18 17 0 8 8 3 21 -13z m-1531 4 c0 -2 -10
-12 -22 -23 l-23 -19 19 23 c18 21 26 27 26 19z m1197 -13 c-3 -3 -12 -4 -19
-1 -8 3 -5 6 6 6 11 1 17 -2 13 -5z m-166 -22 c-13 -2 -27 0 -32 5 -6 6 3 7
23 4 28 -4 29 -6 9 -9z m554 -12 c10 -11 16 -20 13 -20 -3 0 -13 9 -23 20 -10
11 -16 20 -13 20 3 0 13 -9 23 -20z m-1640 0 c-3 -5 -16 -15 -28 -21 -19 -9
-19 -8 3 10 28 23 34 26 25 11z m-300 -10 c-3 -5 -12 -10 -18 -10 -7 0 -6 4 3
10 19 12 23 12 15 0z m1111 -25 c45 -23 94 -76 94 -103 0 -6 -12 1 -27 15 -38
36 -125 73 -192 82 l-56 8 35 10 c56 18 93 15 146 -12z m-1171 -5 c-3 -5 -12
-10 -18 -10 -7 0 -6 4 3 10 19 12 23 12 15 0z m810 -11 c5 -6 2 -9 -9 -9 -57
0 -117 -77 -131 -167 -6 -40 -8 -41 -31 -32 -14 5 -48 9 -75 9 -60 0 -62 11
-19 87 49 86 137 138 215 128 22 -4 44 -10 50 -16z m-528 5 c-3 -3 -12 -4 -19
-1 -8 3 -5 6 6 6 11 1 17 -2 13 -5z m1411 -32 c-2 -22 -8 -39 -15 -39 -8 0 -9
6 -2 18 5 10 9 27 9 38 0 12 2 21 5 21 3 0 4 -17 3 -38z m377 18 c10 -11 16
-20 13 -20 -3 0 -13 9 -23 20 -10 11 -16 20 -13 20 3 0 13 -9 23 -20z m-1847
3 c-10 -2 -26 -2 -35 0 -10 3 -2 5 17 5 19 0 27 -2 18 -5z m-65 -10 c-7 -2
-19 -2 -25 0 -7 3 -2 5 12 5 14 0 19 -2 13 -5z m-223 -7 c0 -2 -7 -7 -16 -10
-8 -3 -12 -2 -9 4 6 10 25 14 25 6z m-40 -20 c0 -2 -7 -7 -16 -10 -8 -3 -12
-2 -9 4 6 10 25 14 25 6z m950 -38 c-17 -23 -33 -58 -36 -78 -5 -28 -14 -40
-44 -58 -22 -12 -41 -22 -44 -22 -13 0 -5 82 11 121 12 32 26 46 57 60 23 10
51 19 64 19 22 0 22 -1 -8 -42z m257 26 c49 -17 134 -69 132 -82 0 -4 -18 -22
-39 -40 l-39 -33 -38 38 c-57 57 -104 76 -174 71 -50 -4 -57 -2 -46 10 18 23
88 52 124 52 18 0 54 -7 80 -16z m1059 -36 l29 -33 -32 29 c-31 28 -38 36 -30
36 2 0 16 -15 33 -32z m-433 5 c-13 -2 -35 -2 -50 0 -16 2 -5 4 22 4 28 0 40
-2 28 -4z m54 1 c-3 -3 -12 -4 -19 -1 -8 3 -5 6 6 6 11 1 17 -2 13 -5z m-1836
-64 c-13 -11 -28 -20 -35 -20 -6 0 3 9 19 19 39 25 46 25 16 1z m1090 -5 c16
-9 43 -34 59 -57 29 -39 29 -41 13 -68 l-16 -28 -28 37 c-33 46 -101 81 -163
84 -25 1 -46 5 -46 8 0 3 15 13 33 22 41 20 110 21 148 2z m1209 -10 c13 -14
21 -25 18 -25 -2 0 -15 11 -28 25 -13 14 -21 25 -18 25 2 0 15 -11 28 -25z
m-328 -48 c8 -3 9 -6 1 -6 -13 -1 -53 46 -53 63 0 6 9 -3 19 -20 11 -18 25
-34 33 -37z m-469 27 c42 -20 48 -34 15 -34 -64 -1 -168 -107 -168 -172 0 -25
-3 -29 -17 -23 -10 5 -47 9 -83 10 -64 1 -65 1 -74 33 -8 28 -5 37 29 79 100
127 189 159 298 107z m-1808 6 c-3 -5 -12 -10 -18 -10 -7 0 -6 4 3 10 19 12
23 12 15 0z m2439 -38 c2 -4 -13 -6 -35 -4 -21 2 -39 6 -39 8 0 7 69 4 74 -4z
m256 -27 c19 -19 32 -35 29 -35 -3 0 -20 16 -39 35 -19 19 -32 35 -29 35 3 0
20 -16 39 -35z m-2780 21 c0 -2 -7 -7 -16 -10 -8 -3 -12 -2 -9 4 6 10 25 14
25 6z m2423 -3 c-7 -2 -21 -2 -30 0 -10 3 -4 5 12 5 17 0 24 -2 18 -5z m-1009
-26 c41 -23 89 -97 100 -152 5 -26 1 -33 -34 -58 -36 -26 -43 -27 -80 -17 -31
8 -41 17 -46 38 -11 47 -54 111 -84 127 -36 19 -48 19 -83 1 -25 -14 -26 -13
-18 2 40 74 166 105 245 59z m-366 3 c9 0 -7 -12 -36 -26 -61 -30 -118 -92
-134 -146 -6 -21 -12 -38 -13 -38 -1 0 -16 7 -33 16 -47 23 -42 52 21 119 41
45 62 60 102 70 28 8 56 12 63 9 8 -2 21 -4 30 -4z m-300 -92 c-3 -89 -4 -92
-28 -99 -30 -7 -55 4 -97 44 -41 39 -46 68 -6 37 23 -18 29 -19 41 -7 11 11
11 19 3 35 -17 33 -13 46 7 22 23 -28 42 -19 42 19 0 31 7 41 27 41 11 0 13
-19 11 -92z m1233 71 c19 -10 18 -12 -23 -38 -47 -30 -103 -89 -120 -127 -22
-49 -64 -16 -54 41 17 87 132 159 197 124z m-2121 -24 c0 -2 -10 -9 -22 -15
-22 -11 -22 -10 -4 4 21 17 26 19 26 11z m1260 -3 c0 -4 -4 -12 -9 -17 -5 -6
-13 -25 -18 -44 -8 -31 -14 -36 -59 -46 -28 -6 -67 -22 -87 -34 -21 -12 -37
-19 -37 -15 0 19 53 95 80 114 47 33 130 60 130 42z m-997 -29 c-7 -2 -19 -2
-25 0 -7 3 -2 5 12 5 14 0 19 -2 13 -5z m282 -15 c2 -13 6 -51 7 -85 3 -61 2
-63 -26 -73 -41 -14 -62 -13 -105 9 -46 24 -65 46 -57 66 5 14 9 14 35 1 36
-19 42 -13 35 36 -7 44 6 50 26 13 19 -36 40 -32 40 8 0 19 3 37 7 40 14 14
33 6 38 -15z m1773 3 c20 -10 46 -28 56 -40 l19 -21 -42 0 c-23 0 -52 -5 -64
-11 -44 -23 -97 -83 -112 -129 -14 -41 -19 -47 -67 -64 -40 -14 -53 -15 -56
-6 -3 7 -18 38 -33 67 l-29 55 42 49 c45 53 94 94 130 109 40 15 116 11 156
-9z m705 1 c15 -16 15 -19 2 -19 -8 0 -13 3 -10 5 3 3 0 11 -6 19 -17 20 -5
16 14 -5z m-225 -9 c-10 -2 -28 -2 -40 0 -13 2 -5 4 17 4 22 1 32 -1 23 -4z
m-2648 -7 c0 -2 -7 -7 -16 -10 -8 -3 -12 -2 -9 4 6 10 25 14 25 6z m1253 -14
c23 -25 50 -93 40 -102 -4 -4 -20 -10 -34 -14 -21 -4 -30 -1 -42 18 -9 13 -35
32 -58 43 l-42 20 39 27 c45 30 75 33 97 8z m-1558 -12 c-3 -5 -12 -10 -18
-10 -7 0 -6 4 3 10 19 12 23 12 15 0z m3261 -32 l29 -33 -32 29 c-31 28 -38
36 -30 36 2 0 16 -15 33 -32z m-3066 9 c0 -2 -10 -12 -22 -23 l-23 -19 19 23
c18 21 26 27 26 19z m2857 -54 c-3 -10 -5 -4 -5 12 0 17 2 24 5 18 2 -7 2 -21
0 -30z m-1594 -20 c22 -13 37 -26 35 -27 -1 -1 -24 -22 -50 -45 -46 -42 -47
-42 -72 -25 -19 12 -41 15 -80 12 -50 -4 -55 -2 -65 19 -14 31 -16 28 20 54
75 53 143 57 212 12z m1088 26 c27 -14 39 -50 32 -92 l-5 -34 -103 1 -102 1 8
29 c10 33 54 84 84 96 28 12 63 12 86 -1z m-534 -10 c60 -22 132 -118 133
-175 0 -13 -16 -31 -44 -51 l-44 -31 -18 39 c-21 49 -70 93 -119 109 -51 17
-130 8 -166 -19 l-30 -23 15 29 c19 37 88 101 130 119 38 16 104 18 143 3z
m1329 -21 l29 -33 -32 29 c-31 28 -38 36 -30 36 2 0 16 -15 33 -32z m-3526 7
c0 -2 -13 -11 -30 -20 -38 -19 -40 -11 -2 9 31 17 32 18 32 11z m1330 -40 c16
-15 38 -49 49 -76 28 -63 83 -259 112 -393 l23 -108 -30 -22 c-16 -11 -48 -38
-72 -60 -23 -21 -44 -37 -45 -35 -2 2 -37 96 -77 209 -82 229 -138 365 -169
409 -28 38 -27 43 11 66 86 52 151 55 198 10z m1897 -7 c-3 -7 -5 -2 -5 12 0
14 2 19 5 13 2 -7 2 -19 0 -25z m-2641 -23 c13 -21 14 -28 4 -40 -12 -14 -15
-13 -35 5 -26 25 -45 19 -69 -20 -19 -32 -40 -39 -50 -15 -3 8 -10 15 -15 15
-16 0 -51 -42 -51 -62 0 -22 -18 -24 -26 -3 -15 39 43 110 83 103 10 -1 32 7
47 20 40 31 91 30 112 -3z m428 4 c15 -12 47 -62 72 -111 48 -95 65 -138 173
-438 l66 -185 -20 -43 -20 -42 -85 85 c-47 47 -123 113 -170 146 -83 60 -86
63 -164 197 -43 76 -87 158 -97 185 -21 52 -25 127 -9 158 32 59 200 91 254
48z m844 15 l30 -6 -19 -32 c-10 -17 -19 -46 -19 -63 0 -26 -6 -36 -30 -48
-22 -12 -35 -13 -49 -5 -49 26 -118 7 -174 -48 l-38 -37 16 45 c34 98 99 163
183 186 57 15 61 16 100 8z m1448 -12 c-10 -2 -22 0 -28 6 -6 6 0 7 19 4 21
-5 23 -7 9 -10z m289 -2 c10 -11 16 -20 13 -20 -3 0 -13 9 -23 20 -10 11 -16
20 -13 20 3 0 13 -9 23 -20z m-3710 0 c-3 -5 -12 -10 -18 -10 -7 0 -6 4 3 10
19 12 23 12 15 0z m-55 -25 c0 -2 -10 -9 -22 -15 -22 -11 -22 -10 -4 4 21 17
26 19 26 11z m3578 -61 c-3 -14 -5 -12 -10 9 -3 19 -2 25 4 19 6 -6 8 -18 6
-28z m-1870 10 c17 -12 20 -19 12 -33 -5 -10 -17 -48 -27 -83 l-18 -64 -31 98
-32 98 37 0 c20 0 47 -7 59 -16z m581 -11 c65 -49 91 -132 52 -167 -18 -17
-20 -16 -26 4 -18 56 -95 111 -195 138 l-35 9 45 22 c54 26 119 23 159 -6z
m1562 10 c13 -16 12 -17 -3 -4 -10 7 -18 15 -18 17 0 8 8 3 21 -13z m-3593
-10 c-10 -2 -28 -2 -40 0 -13 2 -5 4 17 4 22 1 32 -1 23 -4z m-78 -17 c-7 -7
-13 -7 -20 0 -6 6 -3 10 10 10 13 0 16 -4 10 -10z m2629 -15 c22 -14 5 -41
-26 -41 -15 0 -38 -3 -50 -6 -16 -4 -25 -1 -29 10 -8 22 -2 28 43 36 21 4 40
8 43 9 3 0 11 -3 19 -8z m776 -1 c3 -5 1 -10 -4 -10 -6 0 -11 5 -11 10 0 6 2
10 4 10 3 0 8 -4 11 -10z m330 -10 c10 -11 16 -20 13 -20 -3 0 -13 9 -23 20
-10 11 -16 20 -13 20 3 0 13 -9 23 -20z m-3890 0 c-3 -5 -16 -10 -28 -9 -20 1
-20 2 3 9 14 4 26 8 28 9 2 1 0 -3 -3 -9z m319 -19 c-2 -3 -12 3 -22 13 -16
17 -16 18 5 5 12 -7 20 -15 17 -18z m3314 22 c-10 -2 -28 -2 -40 0 -13 2 -5 4
17 4 22 1 32 -1 23 -4z m-2998 -18 c19 -23 4 -48 -24 -41 -14 3 -28 2 -31 -4
-10 -17 -45 -12 -45 7 0 44 72 71 100 38z m3057 9 c-3 -3 -12 -4 -19 -1 -8 3
-5 6 6 6 11 1 17 -2 13 -5z m-651 -43 c44 -20 108 -80 130 -123 21 -40 22 -92
3 -95 -10 -3 -23 13 -39 46 -25 54 -88 124 -132 147 -28 15 -38 44 -15 44 6 0
30 -9 53 -19z m-1152 0 c3 -4 -4 -17 -15 -27 -60 -55 -81 -178 -45 -265 6 -13
-6 -20 -52 -35 l-60 -20 -14 66 c-12 61 -12 69 8 127 29 84 58 127 97 147 35
17 73 21 81 7z m156 -39 c-66 -69 -104 -149 -98 -207 4 -33 2 -45 -7 -45 -8 0
-20 -3 -28 -6 -10 -3 -19 8 -31 36 -51 128 37 268 170 270 l40 0 -46 -48z
m-2173 12 c-3 -3 -12 -4 -19 -1 -8 3 -5 6 6 6 11 1 17 -2 13 -5z m-47 -7 c0
-2 -12 -14 -27 -28 l-28 -24 24 28 c23 25 31 32 31 24z m2392 -24 c51 -55 52
-66 14 -135 -19 -35 -39 -79 -45 -100 -12 -36 -12 -36 -49 -26 -20 6 -59 13
-86 17 -44 5 -50 9 -58 36 -12 44 0 97 33 149 54 86 141 112 191 59z m1789 10
c13 -16 12 -17 -3 -4 -10 7 -18 15 -18 17 0 8 8 3 21 -13z m-4401 2 c0 -2 -18
-14 -40 -25 -22 -11 -40 -18 -40 -15 0 2 17 13 38 24 42 23 42 23 42 16z m585
-30 c14 -13 25 -29 25 -35 0 -20 -31 -23 -51 -5 -19 18 -20 17 -50 -10 -25
-25 -32 -28 -49 -17 -29 18 -39 15 -53 -15 -15 -36 -27 -44 -49 -32 -25 13
-52 -3 -68 -41 -13 -31 -40 -41 -40 -15 0 51 44 105 86 105 10 0 30 12 46 27
19 18 37 26 60 25 18 0 40 5 48 12 36 32 65 32 95 1z m2519 -15 c35 -22 69
-40 77 -40 7 0 32 19 56 42 23 23 46 39 49 35 4 -4 1 -34 -6 -68 l-13 -62 37
-32 38 -32 -38 -6 c-22 -4 -53 -7 -70 -7 -38 0 -45 -9 -68 -85 -15 -48 -20
-56 -27 -40 -4 11 -8 37 -8 58 -2 70 -11 77 -109 78 l-87 1 68 30 c42 20 67
37 67 47 0 9 -9 40 -20 69 -11 28 -18 52 -15 52 3 0 34 -18 69 -40z m1083 -17
c-3 -10 -5 -2 -5 17 0 19 2 27 5 18 2 -10 2 -26 0 -35z m-3284 -90 c4 -58 7
-141 7 -185 l0 -78 -34 0 c-18 0 -47 -3 -63 -6 l-29 -6 -12 90 c-18 133 -16
189 9 228 23 37 62 63 95 64 20 0 21 -7 27 -107z m328 79 c31 -26 20 -57 -17
-48 -14 4 -32 2 -39 -4 -15 -13 -45 -3 -45 15 0 16 47 55 65 55 7 0 23 -8 36
-18z m3280 -19 c13 -16 12 -17 -3 -4 -10 7 -18 15 -18 17 0 8 8 3 21 -13z
m-4378 -37 c-10 -13 -20 -22 -22 -20 -4 4 29 44 36 44 2 0 -4 -11 -14 -24z
m4438 -13 c13 -16 12 -17 -3 -4 -10 7 -18 15 -18 17 0 8 8 3 21 -13z m-4056
-28 c0 -14 -8 -21 -25 -23 -14 -2 -35 -13 -47 -24 -40 -37 -58 0 -22 46 17 22
28 27 58 24 28 -2 36 -7 36 -23z m-408 -27 c-3 -7 -5 -2 -5 12 0 14 2 19 5 13
2 -7 2 -19 0 -25z m4061 8 c88 -46 158 -143 168 -234 l6 -47 -124 -64 c-376
-196 -933 -510 -1358 -765 -156 -94 -288 -172 -291 -174 -4 -2 -10 19 -14 45
-25 176 -171 278 -327 230 -27 -8 -48 -13 -48 -11 0 10 159 128 240 178 49 31
220 123 378 205 341 176 561 301 813 462 185 118 254 157 326 184 51 20 187
14 231 -9z m457 4 c10 -11 16 -20 13 -20 -3 0 -13 9 -23 20 -10 11 -16 20 -13
20 3 0 13 -9 23 -20z m-4985 -14 c0 -2 -8 -10 -17 -17 -16 -13 -17 -12 -4 4
13 16 21 21 21 13z m1100 -181 c8 -45 0 -78 -15 -63 -14 13 -26 138 -19 193
l8 60 8 -70 c5 -38 13 -92 18 -120z m337 170 c150 -29 309 -95 444 -185 98
-65 285 -259 358 -370 160 -245 283 -599 250 -722 -26 -97 -86 -175 -164 -214
-46 -22 -65 -26 -115 -22 -94 7 -118 31 -240 250 -19 34 -64 93 -100 131 -94
101 -179 139 -262 117 -94 -25 -151 -101 -151 -201 0 -108 67 -194 213 -274
108 -59 140 -92 140 -145 0 -117 -140 -220 -298 -220 -108 0 -239 49 -412 154
-329 201 -588 515 -671 812 -32 115 -31 252 2 316 l24 46 28 -22 c25 -20 27
-26 17 -50 -18 -49 -23 -159 -10 -236 42 -249 233 -543 474 -729 287 -222 655
-297 732 -150 36 71 13 115 -126 234 -147 127 -190 192 -190 289 0 127 151
238 325 239 131 1 193 -54 290 -258 92 -194 157 -255 256 -242 114 15 169 140
140 323 -46 296 -199 569 -457 813 -185 175 -346 261 -532 283 -84 10 -98 14
-98 30 0 23 26 23 133 3z m3594 -12 c13 -16 12 -17 -3 -4 -10 7 -18 15 -18 17
0 8 8 3 21 -13z m-4564 -35 c-3 -7 -5 -2 -5 12 0 14 2 19 5 13 2 -7 2 -19 0
-25z m-167 18 c0 -2 -8 -10 -17 -17 -16 -13 -17 -12 -4 4 13 16 21 21 21 13z
m-370 -9 c0 -2 -17 -19 -37 -38 l-38 -34 34 38 c33 34 41 42 41 34z m327 -3
c-3 -3 -12 -4 -19 -1 -8 3 -5 6 6 6 11 1 17 -2 13 -5z m-87 -18 c0 -2 -8 -10
-17 -17 -16 -13 -17 -12 -4 4 13 16 21 21 21 13z m1350 -44 c142 -49 272 -136
412 -276 131 -131 218 -248 288 -391 102 -207 155 -445 121 -548 -17 -49 -73
-97 -114 -97 -74 0 -119 52 -216 252 -69 143 -124 203 -208 232 -156 53 -390
-39 -447 -176 -25 -58 -21 -145 9 -204 34 -68 79 -119 186 -210 104 -88 126
-122 109 -164 -39 -94 -247 -80 -476 30 -126 61 -236 143 -345 258 -220 231
-337 503 -314 730 10 100 7 97 116 79 52 -9 110 -23 130 -31 33 -14 37 -20 48
-73 40 -206 242 -340 461 -306 140 22 248 101 311 228 32 65 34 76 34 170 0
88 -3 107 -27 158 -36 77 -116 160 -191 197 -33 16 -68 30 -79 30 -16 0 -18 9
-18 71 l0 72 78 -6 c42 -3 102 -15 132 -25z m3499 14 c-2 -2 -15 -9 -29 -15
-24 -11 -24 -11 -6 3 16 13 49 24 35 12z m-4886 -21 c-3 -9 -8 -14 -10 -11 -3
3 -2 9 2 15 9 16 15 13 8 -4z m901 -102 c6 -39 4 -44 -22 -57 -16 -8 -53 -35
-82 -60 l-54 -44 -41 37 c-23 21 -50 43 -61 49 -18 11 -16 15 32 60 28 27 87
67 130 90 l79 41 6 -37 c4 -20 9 -56 13 -79z m4129 103 c21 -16 40 -4 -373
-221 -1042 -547 -2376 -1343 -3155 -1884 -120 -83 -131 -89 -147 -74 -10 9
-15 20 -12 25 9 15 735 494 1019 673 683 431 1494 898 2185 1260 135 70 290
152 345 181 55 29 105 53 110 53 6 0 18 -6 28 -13z m-2388 -10 c16 -12 17 -16
6 -30 -23 -27 -90 -3 -78 28 8 20 47 21 72 2z m2184 0 c-10 -9 -89 -46 -89
-41 0 6 72 44 84 45 5 0 7 -2 5 -4z m-5116 -21 c-3 -9 -8 -14 -10 -11 -3 3 -2
9 2 15 9 16 15 13 8 -4z m630 -27 c9 -11 17 -26 17 -34 0 -24 -23 -28 -41 -6
-22 28 -43 28 -62 0 -12 -19 -18 -21 -28 -10 -24 23 -49 14 -65 -23 -12 -30
-19 -35 -49 -35 -39 0 -67 -31 -63 -70 2 -14 -5 -26 -17 -34 -29 -16 -35 -27
-35 -68 0 -65 -35 -54 -46 14 -5 27 -1 40 19 64 13 16 28 44 31 61 8 37 57 83
89 83 11 0 32 14 47 32 20 24 34 31 60 31 19 0 46 6 60 14 30 15 58 9 83 -19z
m-650 -13 c-3 -9 -8 -14 -10 -11 -3 3 -2 9 2 15 9 16 15 13 8 -4z m3188 -26
c71 -50 151 -198 129 -240 -15 -27 -28 -24 -42 9 -43 103 -62 136 -102 177
-47 47 -58 75 -30 75 9 0 29 -9 45 -21z m2176 -1 c-3 -8 -6 -5 -6 6 -1 11 2
17 5 13 3 -3 4 -12 1 -19z m78 13 c3 -5 2 -12 -3 -15 -5 -3 -9 1 -9 9 0 17 3
19 12 6z m-466 -4 c-2 -2 -12 -9 -21 -16 -15 -11 -18 -11 -18 1 0 7 10 14 21
15 12 1 20 1 18 0z m502 -24 c13 -16 12 -17 -3 -4 -10 7 -18 15 -18 17 0 8 8
3 21 -13z m-2455 -84 l-16 -52 43 -38 42 -39 -50 -1 c-100 -3 -107 -7 -127
-77 -11 -34 -23 -60 -27 -57 -5 2 -12 31 -16 62 -10 82 -14 85 -107 77 -43 -4
-78 -4 -78 0 0 3 29 19 65 35 36 16 65 34 65 40 0 6 -9 34 -20 63 -11 28 -18
54 -15 56 2 2 31 -12 63 -32 33 -20 68 -36 79 -36 11 0 40 19 64 43 51 49 59
39 35 -44z m2341 44 c-3 -10 -5 -4 -5 12 0 17 2 24 5 18 2 -7 2 -21 0 -30z
m-5390 5 c-3 -8 -6 -5 -6 6 -1 11 2 17 5 13 3 -3 4 -12 1 -19z m5288 12 c-3
-5 -12 -10 -18 -10 -7 0 -6 4 3 10 19 12 23 12 15 0z m256 -7 c13 -16 12 -17
-3 -4 -10 7 -18 15 -18 17 0 8 8 3 21 -13z m-3957 -39 c67 -32 139 -106 169
-172 17 -37 22 -66 22 -137 0 -79 -4 -97 -28 -147 -36 -73 -101 -139 -174
-174 -74 -36 -194 -45 -274 -19 -155 49 -249 173 -249 328 0 89 22 156 72 212
118 134 316 181 462 109z m-1373 -7 l-24 -22 19 27 c10 14 21 24 23 22 3 -3
-6 -15 -18 -27z m5370 16 c13 -16 12 -17 -3 -4 -10 7 -18 15 -18 17 0 8 8 3
21 -13z m-4673 -18 c63 -29 100 -57 123 -91 15 -23 15 -29 0 -70 -9 -24 -20
-44 -26 -44 -24 0 -202 40 -270 61 -82 24 -87 32 -64 98 25 72 135 94 237 46z
m4297 15 c-3 -5 -12 -10 -18 -10 -7 0 -6 4 3 10 19 12 23 12 15 0z m-5218 -97
c-2 -21 -4 -6 -4 32 0 39 2 55 4 38 2 -18 2 -50 0 -70z m5382 74 c-2 -1 -15
-11 -29 -22 l-25 -20 19 23 c11 12 24 22 29 22 6 0 8 -1 6 -3z m99 -22 c-3 -3
-9 2 -12 12 -6 14 -5 15 5 6 7 -7 10 -15 7 -18z m167 5 c10 -11 16 -20 13 -20
-3 0 -13 9 -23 20 -10 11 -16 20 -13 20 3 0 13 -9 23 -20z m-560 -30 c-3 -5
-12 -10 -18 -10 -7 0 -6 4 3 10 19 12 23 12 15 0z m-4550 -14 c25 -18 13 -50
-17 -43 -27 7 -48 -8 -48 -35 0 -13 -6 -18 -17 -16 -26 5 -21 67 7 90 27 21
50 23 75 4z m4785 10 c0 -2 -8 -10 -17 -17 -16 -13 -17 -12 -4 4 13 16 21 21
21 13z m-275 -16 c-3 -5 -12 -10 -18 -10 -7 0 -6 4 3 10 19 12 23 12 15 0z
m336 -19 c-41 -57 -22 -71 45 -34 43 23 47 24 31 6 -10 -12 -32 -27 -48 -33
-39 -16 -35 -46 5 -43 37 3 29 -17 -17 -39 -20 -10 -44 -29 -53 -42 -9 -15
-36 -32 -67 -42 -73 -24 -144 -72 -200 -134 -64 -71 -94 -124 -110 -193 l-13
-58 -82 -4 c-68 -3 -82 -1 -82 11 0 27 -38 91 -74 122 -33 29 -34 32 -24 69
18 67 56 131 118 197 70 74 139 121 207 142 63 20 177 19 232 0 58 -21 58 -21
77 17 15 29 62 87 72 87 2 0 -6 -13 -17 -29z m330 12 c13 -16 12 -17 -3 -4
-10 7 -18 15 -18 17 0 8 8 3 21 -13z m-183 -18 c-3 -3 -9 2 -12 12 -6 14 -5
15 5 6 7 -7 10 -15 7 -18z m-528 1 c0 -2 -7 -7 -16 -10 -8 -3 -12 -2 -9 4 6
10 25 14 25 6z m163 -3 c-13 -2 -33 -2 -45 0 -13 2 -3 4 22 4 25 0 35 -2 23
-4z m-100 -10 c-7 -2 -19 -2 -25 0 -7 3 -2 5 12 5 14 0 19 -2 13 -5z m180 0
c-7 -2 -19 -2 -25 0 -7 3 -2 5 12 5 14 0 19 -2 13 -5z m-226 -9 c-3 -3 -12 -4
-19 -1 -8 3 -5 6 6 6 11 1 17 -2 13 -5z m754 -11 c13 -16 12 -17 -3 -4 -10 7
-18 15 -18 17 0 8 8 3 21 -13z m-826 -16 c-11 -6 -21 -5 -28 3 -9 8 -7 9 7 4
13 -5 17 -4 12 4 -5 8 -2 10 10 5 15 -6 15 -7 -1 -16z m-4737 -12 c-3 -3 -9 2
-12 12 -6 14 -5 15 5 6 7 -7 10 -15 7 -18z m-201 -7 c-3 -8 -6 -5 -6 6 -1 11
2 17 5 13 3 -3 4 -12 1 -19z m4898 13 c3 -5 2 -12 -3 -15 -5 -3 -9 1 -9 9 0
17 3 19 12 6z m605 5 c0 -2 -8 -10 -17 -17 -16 -13 -17 -12 -4 4 13 16 21 21
21 13z m189 -9 c-2 -1 -17 -13 -34 -27 -22 -18 -25 -20 -12 -4 9 11 15 23 12
25 -2 3 5 6 17 6 11 1 19 1 17 0z m122 -14 c13 -16 12 -17 -3 -4 -10 7 -18 15
-18 17 0 8 8 3 21 -13z m-5022 -28 c47 -13 114 -29 149 -36 59 -11 81 -23 68
-36 -3 -3 -36 2 -73 11 -37 9 -101 20 -141 25 -55 7 -80 15 -98 32 -28 26 -32
44 -8 35 9 -4 56 -17 103 -31z m4041 20 c0 -2 -10 -9 -22 -15 -22 -11 -22 -10
-4 4 21 17 26 19 26 11z m-4823 -27 c-3 -8 -6 -5 -6 6 -1 11 2 17 5 13 3 -3 4
-12 1 -19z m5854 -5 c13 -16 12 -17 -3 -4 -10 7 -18 15 -18 17 0 8 8 3 21 -13z
m-1031 4 c0 -2 -10 -12 -22 -23 l-23 -19 19 23 c18 21 26 27 26 19z m863 -42
c-5 -38 -3 -45 11 -45 9 0 28 7 42 16 36 24 42 8 9 -26 -18 -18 -25 -35 -21
-45 6 -17 18 -17 73 1 10 3 -4 -14 -31 -39 -52 -47 -57 -72 -14 -79 30 -6 15
-11 -91 -32 -97 -19 -208 -66 -244 -105 -41 -42 -77 -124 -90 -206 -11 -71
-15 -79 -52 -109 -22 -18 -50 -38 -61 -44 -19 -10 -23 -8 -28 11 -3 12 -1 26
4 31 21 21 10 75 -22 112 -34 39 -117 84 -155 84 -32 0 -34 10 -13 72 26 78
41 105 100 170 61 68 163 123 257 138 61 10 81 8 231 -27 18 -4 25 1 37 33 23
58 58 134 62 134 1 0 0 -20 -4 -45z m110 38 c-7 -2 -21 -2 -30 0 -10 3 -4 5
12 5 17 0 24 -2 18 -5z m-5636 -50 c-3 -10 -5 -2 -5 17 0 19 2 27 5 18 2 -10
2 -26 0 -35z m5313 39 c0 -5 -7 -17 -15 -28 -14 -18 -14 -17 -4 9 12 27 19 34
19 19z m358 -27 c-3 -3 -9 2 -12 12 -6 14 -5 15 5 6 7 -7 10 -15 7 -18z m77
-5 c10 -11 16 -20 13 -20 -3 0 -13 9 -23 20 -10 11 -16 20 -13 20 3 0 13 -9
23 -20z m-1145 -13 c0 -2 -10 -12 -22 -23 l-23 -19 19 23 c18 21 26 27 26 19z
m665 -7 c-3 -5 -12 -10 -18 -10 -7 0 -6 4 3 10 19 12 23 12 15 0z m530 -20
c10 -11 16 -20 13 -20 -3 0 -13 9 -23 20 -10 11 -16 20 -13 20 3 0 13 -9 23
-20z m-442 3 c-7 -2 -21 -2 -30 0 -10 3 -4 5 12 5 17 0 24 -2 18 -5z m-5469
-19 c3 -8 2 -12 -4 -9 -6 3 -10 10 -10 16 0 14 7 11 14 -7z m4536 1 c0 -2 -13
-11 -30 -20 -38 -19 -40 -11 -2 9 31 17 32 18 32 11z m1425 -25 c10 -11 16
-20 13 -20 -3 0 -13 9 -23 20 -10 11 -16 20 -13 20 3 0 13 -9 23 -20z m-5775
-22 c0 -12 -6 -9 -26 13 -19 22 -19 22 4 8 12 -8 22 -17 22 -21z m4480 28 c0
-2 -8 -10 -17 -17 -16 -13 -17 -12 -4 4 13 16 21 21 21 13z m-220 -31 c0 -2
-13 -11 -30 -20 -38 -19 -40 -11 -2 9 31 17 32 18 32 11z m180 -25 c-6 -11
-13 -20 -16 -20 -2 0 0 9 6 20 6 11 13 20 16 20 2 0 0 -9 -6 -20z m1395 0 c10
-11 16 -20 13 -20 -3 0 -13 9 -23 20 -10 11 -16 20 -13 20 3 0 13 -9 23 -20z
m-5621 -6 c30 -29 20 -45 -26 -42 -37 3 -42 0 -48 -22 -3 -15 -15 -26 -30 -30
-16 -4 -26 -14 -28 -28 -4 -25 -30 -30 -38 -7 -9 21 9 67 31 79 10 6 30 23 43
39 27 31 71 36 96 11z m-251 -27 c-15 -19 -30 -32 -32 -30 -5 3 49 63 57 63 2
0 -9 -15 -25 -33z m4207 8 c0 -2 -13 -11 -30 -20 -38 -19 -40 -11 -2 9 31 17
32 18 32 11z m-4279 -22 c13 -16 12 -17 -3 -4 -10 7 -18 15 -18 17 0 8 8 3 21
-13z m6000 0 c13 -16 12 -17 -3 -4 -10 7 -18 15 -18 17 0 8 8 3 21 -13z m-84
-49 c-3 -3 -12 -4 -19 -1 -8 3 -5 6 6 6 11 1 17 -2 13 -5z m-1529 -11 c-16 -2
-40 -2 -55 0 -16 2 -3 4 27 4 30 0 43 -2 28 -4z m109 -25 c-3 -7 -5 -2 -5 12
0 14 2 19 5 13 2 -7 2 -19 0 -25z m-210 16 c-3 -3 -12 -4 -19 -1 -8 3 -5 6 6
6 11 1 17 -2 13 -5z m1814 -11 c13 -16 12 -17 -3 -4 -10 7 -18 15 -18 17 0 8
8 3 21 -13z m-2001 2 c0 -2 -13 -11 -30 -20 -38 -19 -40 -11 -2 9 31 17 32 18
32 11z m-3783 -22 c4 -10 1 -19 -6 -21 -8 -3 -22 -13 -32 -23 -25 -25 -49 -24
-49 1 0 45 73 81 87 43z m5714 -10 c13 -16 12 -17 -3 -4 -10 7 -18 15 -18 17
0 8 8 3 21 -13z m-396 -3 c4 -6 4 -24 0 -40 -5 -22 -24 -40 -83 -78 -42 -27
-108 -65 -147 -85 -38 -19 -87 -47 -109 -62 -21 -14 -41 -24 -44 -21 -11 12
20 115 47 157 18 29 45 54 81 73 90 49 239 81 255 56z m65 -5 c-7 -9 -15 -13
-19 -10 -3 3 1 10 9 15 21 14 24 12 10 -5z m226 0 c30 -12 244 -153 244 -161
0 -1 -35 -2 -77 -2 -49 0 -92 -5 -116 -15 l-37 -16 -21 42 c-31 61 -58 87 -91
87 -22 0 -33 -8 -46 -30 -12 -21 -25 -30 -43 -30 -33 0 -58 -28 -66 -73 -4
-26 -11 -37 -27 -41 -49 -12 -53 -81 -6 -106 18 -10 18 -12 -10 -58 -16 -26
-37 -78 -46 -115 -14 -57 -15 -80 -6 -147 33 -234 211 -420 468 -491 63 -17
98 -20 193 -17 105 3 122 6 183 35 195 92 272 324 189 571 -11 31 -19 58 -18
59 6 5 153 -132 194 -182 37 -45 71 -72 131 -105 45 -25 82 -48 82 -51 0 -3
-19 -16 -42 -29 -24 -13 -138 -88 -255 -166 -118 -78 -265 -167 -329 -199 -89
-43 -132 -71 -178 -115 -34 -32 -84 -68 -111 -80 -28 -12 -72 -39 -100 -60
-27 -21 -82 -51 -121 -67 -42 -18 -97 -52 -137 -86 -36 -31 -79 -63 -94 -71
-15 -8 -48 -35 -73 -61 -25 -26 -76 -63 -115 -82 -38 -19 -91 -50 -117 -69
l-47 -33 -283 246 c-451 392 -698 615 -698 629 0 7 35 40 78 72 42 33 107 93
144 134 58 66 79 81 170 125 75 37 127 72 193 130 50 43 137 107 193 141 56
35 132 89 169 122 40 35 122 88 198 130 72 38 171 100 220 137 168 125 184
131 261 98z m225 -2 c13 -16 12 -17 -3 -4 -10 7 -18 15 -18 17 0 8 8 3 21 -13z
m-1781 -12 c-34 -6 -34 -7 -13 -19 12 -6 36 -12 52 -12 21 0 39 -8 53 -25 12
-14 27 -25 34 -25 21 0 74 -50 74 -70 0 -18 -19 -30 -46 -30 -8 0 -14 7 -14
15 0 8 -16 21 -34 29 -19 8 -41 24 -48 35 -8 13 -23 21 -41 21 -49 0 -96 35
-97 73 0 14 9 17 58 16 48 -1 52 -3 22 -8z m1731 -28 c13 -16 12 -17 -3 -4
-10 7 -18 15 -18 17 0 8 8 3 21 -13z m109 -8 c13 -14 21 -25 18 -25 -2 0 -15
11 -28 25 -13 14 -21 25 -18 25 2 0 15 -11 28 -25z m-2032 -6 c-2 -7 10 -15
25 -20 43 -12 57 -28 57 -65 0 -29 6 -38 40 -59 23 -14 43 -32 46 -40 3 -7 13
-11 22 -8 9 2 2 -5 -15 -17 l-33 -22 -29 24 c-17 12 -41 31 -55 41 -19 13 -26
27 -26 52 0 29 -4 34 -30 40 -57 12 -78 53 -37 73 29 14 38 14 35 1z m377 -29
c10 -11 16 -20 13 -20 -3 0 -13 9 -23 20 -10 11 -16 20 -13 20 3 0 13 -9 23
-20z m-565 -5 c0 -2 -6 -8 -13 -14 -10 -8 -14 -7 -14 2 0 8 6 14 14 14 7 0 13
-1 13 -2z m1869 -31 c11 -14 27 -48 36 -75 21 -61 8 -102 -38 -126 -51 -26
-197 -3 -201 32 0 6 18 11 42 13 33 3 42 7 42 22 0 10 -4 22 -10 25 -13 8 -13
62 0 70 5 3 21 -6 35 -21 33 -36 56 -27 48 20 -10 65 11 84 46 40z m452 -11
c13 -16 12 -17 -3 -4 -10 7 -18 15 -18 17 0 8 8 3 21 -13z m-2281 -7 c0 -2 -8
-10 -17 -17 -16 -13 -17 -12 -4 4 13 16 21 21 21 13z m-120 -20 c0 -2 -8 -10
-17 -17 -16 -13 -17 -12 -4 4 13 16 21 21 21 13z m2455 -16 c10 -11 16 -20 13
-20 -3 0 -13 9 -23 20 -10 11 -16 20 -13 20 3 0 13 -9 23 -20z m-3578 -2 c91
-22 159 -130 151 -238 -3 -36 -8 -44 -46 -66 l-43 -26 7 26 c3 13 7 54 7 89 2
57 -1 69 -23 92 -49 52 -133 71 -164 36 -21 -23 -38 -165 -34 -283 3 -83 2
-89 -21 -104 -24 -17 -24 -17 -17 7 18 55 19 265 2 346 -9 44 -16 85 -16 91 0
6 28 17 63 25 79 19 79 19 134 5z m943 7 c0 -2 -10 -9 -22 -15 -22 -11 -22
-10 -4 4 21 17 26 19 26 11z m2595 -35 c10 -11 16 -20 13 -20 -3 0 -13 9 -23
20 -10 11 -16 20 -13 20 3 0 13 -9 23 -20z m-2310 -34 l41 -44 64 5 c54 3 71
1 98 -16 17 -11 32 -24 32 -28 0 -5 -30 -35 -68 -67 -58 -52 -61 -53 -22 -13
57 61 48 73 -55 69 l-74 -3 -37 46 c-21 25 -47 48 -57 51 -18 6 -18 7 -1 25
24 27 33 24 79 -25z m2400 24 c10 -11 16 -20 13 -20 -3 0 -13 9 -23 20 -10 11
-16 20 -13 20 3 0 13 -9 23 -20z m-2561 1 c3 -5 -2 -15 -12 -22 -15 -12 -16
-12 -5 2 7 9 10 19 6 22 -3 4 -4 7 0 7 3 0 8 -4 11 -9z m869 -8 c-7 -2 -21 -2
-30 0 -10 3 -4 5 12 5 17 0 24 -2 18 -5z m104 1 c-3 -3 -12 -4 -19 -1 -8 3 -5
6 6 6 11 1 17 -2 13 -5z m85 -22 c9 -7 22 -11 29 -6 7 4 10 3 5 -4 -7 -12 26
-34 46 -30 6 2 12 -2 13 -9 0 -6 3 -15 8 -19 14 -14 7 -53 -12 -64 -27 -14
-29 -13 -33 12 -2 13 -21 34 -46 51 -42 28 -68 69 -56 88 6 10 19 5 46 -19z
m1289 12 c100 -30 215 -102 258 -163 l21 -29 -36 -23 c-77 -47 -97 -133 -45
-191 25 -28 36 -33 75 -33 35 0 51 6 74 28 l30 28 6 -34 c12 -63 7 -191 -8
-242 -49 -161 -172 -240 -371 -238 -231 2 -444 130 -539 323 -66 136 -69 248
-10 381 23 51 30 60 48 55 60 -17 133 -18 163 -3 42 22 83 73 83 103 0 19 8
29 33 39 43 19 151 19 218 -1z m-1571 -4 c-22 -14 8 -22 55 -14 55 8 95 -13
95 -50 0 -19 8 -25 42 -34 23 -6 46 -9 50 -6 5 3 7 2 6 -3 -1 -4 6 -21 16 -36
20 -29 16 -40 -19 -51 -15 -4 -23 0 -30 16 -7 16 -22 25 -49 29 -41 7 -66 30
-66 61 0 15 -8 18 -51 18 -57 0 -83 11 -100 42 -13 24 -1 36 38 36 15 0 20 -3
13 -8z m-1020 -5 c0 -2 -10 -9 -22 -15 -22 -11 -22 -10 -4 4 21 17 26 19 26
11z m2861 -22 c13 -16 12 -17 -3 -4 -10 7 -18 15 -18 17 0 8 8 3 21 -13z
m-2561 3 c0 -2 -8 -10 -17 -17 -16 -13 -17 -12 -4 4 13 16 21 21 21 13z
m-1152 -40 c59 -30 65 -46 57 -146 -4 -49 -12 -93 -17 -96 -6 -4 -7 12 -2 42
5 27 8 61 8 77 -2 50 -56 86 -82 55 -17 -21 -26 -124 -12 -133 18 -11 30 14
30 63 0 23 4 42 9 42 15 0 23 -35 17 -72 -3 -18 -8 -49 -11 -68 -4 -26 -14
-41 -35 -53 l-30 -18 0 138 c0 190 5 202 68 169z m754 1 c-9 -10 14 -38 98
-122 98 -98 109 -106 113 -84 3 17 4 14 4 -9 -1 -32 -2 -31 -119 85 -90 90
-115 120 -106 130 6 7 13 13 15 13 3 0 1 -6 -5 -13z m2965 -12 c0 -8 -4 -12
-9 -9 -5 3 -6 10 -3 15 9 13 12 11 12 -6z m54 -2 c13 -16 12 -17 -3 -4 -10 7
-18 15 -18 17 0 8 8 3 21 -13z m-2626 -30 c11 -17 28 -45 37 -62 15 -27 22
-31 61 -31 29 0 53 -7 69 -20 14 -10 29 -16 33 -12 10 9 -10 -28 -28 -52 -14
-19 -15 -19 -21 2 -4 12 -13 22 -19 23 -7 1 -32 2 -56 3 -47 2 -77 27 -113 95
-10 18 -22 29 -28 26 -7 -4 -6 3 0 21 21 55 33 56 65 7z m450 3 c-17 -12 -17
-16 -5 -31 10 -12 23 -15 49 -11 20 3 60 9 88 12 51 6 53 5 70 -25 15 -26 24
-31 55 -31 28 0 46 -8 70 -30 l33 -30 -24 -19 c-25 -19 -25 -19 -44 6 -15 19
-25 23 -48 18 -34 -8 -67 9 -79 39 l-9 24 -64 -16 c-77 -18 -112 -11 -136 28
-10 17 -21 27 -26 22 -5 -4 -5 -1 -1 6 9 15 66 52 80 52 6 0 1 -6 -9 -14z
m2216 -3 c13 -16 12 -17 -3 -4 -10 7 -18 15 -18 17 0 8 8 3 21 -13z m-2926
-204 c357 -360 710 -682 1420 -1299 301 -261 756 -664 919 -811 l49 -45 -40
-26 -39 -26 -164 156 c-243 228 -526 483 -975 876 -220 192 -488 428 -595 525
-198 178 -840 811 -840 828 0 9 34 30 50 32 3 1 100 -94 215 -210z m2885 171
c0 -5 -2 -10 -4 -10 -3 0 -8 5 -11 10 -3 6 -1 10 4 10 6 0 11 -4 11 -10z m101
-17 c13 -16 12 -17 -3 -4 -10 7 -18 15 -18 17 0 8 8 3 21 -13z m-3314 -28 c0
-8 -4 -12 -8 -9 -5 3 -20 -3 -34 -12 -14 -9 -25 -14 -25 -11 0 4 59 45 66 47
0 0 1 -7 1 -15z m3358 -5 c10 -11 16 -20 13 -20 -3 0 -13 9 -23 20 -10 11 -16
20 -13 20 3 0 13 -9 23 -20z m-2463 -23 c-29 -30 -31 -35 -18 -52 12 -17 24
-19 80 -17 78 4 101 -7 116 -53 11 -34 13 -35 61 -35 81 0 106 -22 73 -65 -15
-19 -16 -19 -29 -2 -11 15 -21 17 -62 11 -56 -7 -78 7 -90 54 -8 37 -19 42
-74 35 -62 -7 -93 1 -113 32 -16 25 -16 26 30 75 26 28 49 50 52 50 3 0 -8
-15 -26 -33z m814 17 c-3 -9 -6 -19 -6 -23 0 -5 -17 -20 -37 -34 -21 -13 -82
-63 -136 -111 -66 -59 -125 -100 -185 -130 -48 -24 -100 -58 -116 -75 -17 -17
-33 -31 -37 -31 -14 0 19 90 53 147 62 103 130 149 313 213 66 23 124 46 130
51 15 14 28 10 21 -7z m-1635 -21 c19 -23 20 -24 2 -10 -21 18 -21 18 -26 0
-3 -12 -5 -9 -6 10 0 15 0 27 2 27 2 0 14 -12 28 -27z m346 -15 c-3 -7 -5 -2
-5 12 0 14 2 19 5 13 2 -7 2 -19 0 -25z m2854 15 c13 -16 12 -17 -3 -4 -10 7
-18 15 -18 17 0 8 8 3 21 -13z m-2784 -15 c-3 -8 -6 -5 -6 6 -1 11 2 17 5 13
3 -3 4 -12 1 -19z m963 8 c0 -2 -7 -7 -16 -10 -8 -3 -12 -2 -9 4 6 10 25 14
25 6z m1745 -22 c42 -65 24 -144 -35 -144 -66 0 -84 71 -34 138 30 39 46 40
69 6z m220 6 c10 -11 16 -20 13 -20 -3 0 -13 9 -23 20 -10 11 -16 20 -13 20 3
0 13 -9 23 -20z m-3418 -52 c-2 -13 -4 -5 -4 17 -1 22 1 32 4 23 2 -10 2 -28
0 -40z m3354 15 c13 -16 12 -17 -3 -4 -10 7 -18 15 -18 17 0 8 8 3 21 -13z
m114 -3 c10 -11 16 -20 13 -20 -3 0 -13 9 -23 20 -10 11 -16 20 -13 20 3 0 13
-9 23 -20z m-3408 -42 c-2 -13 -4 -5 -4 17 -1 22 1 32 4 23 2 -10 2 -28 0 -40z
m78 32 c10 -11 16 -20 13 -20 -3 0 -13 9 -23 20 -10 11 -16 20 -13 20 3 0 13
-9 23 -20z m342 -12 c-3 -7 -5 -2 -5 12 0 14 2 19 5 13 2 -7 2 -19 0 -25z
m-677 7 c0 -2 -10 -9 -22 -15 -22 -11 -22 -10 -4 4 21 17 26 19 26 11z m3591
-12 c13 -16 12 -17 -3 -4 -10 7 -18 15 -18 17 0 8 8 3 21 -13z m120 -10 c13
-16 12 -17 -3 -4 -10 7 -18 15 -18 17 0 8 8 3 21 -13z m-3514 -55 c-2 -13 -4
-5 -4 17 -1 22 1 32 4 23 2 -10 2 -28 0 -40z m199 20 l29 -33 -32 29 c-31 28
-38 36 -30 36 2 0 16 -15 33 -32z m379 1 c32 -28 39 -30 61 -20 28 12 74 15
73 4 -2 -28 -20 -47 -55 -59 -55 -19 -59 -18 -103 21 -24 22 -49 35 -66 35
-21 0 -26 4 -21 16 3 9 6 20 6 25 0 5 16 9 35 9 24 0 45 -9 70 -31z m2925 -56
l75 -78 -77 75 c-72 69 -83 80 -75 80 1 0 36 -35 77 -77z m61 50 c13 -16 12
-17 -3 -4 -10 7 -18 15 -18 17 0 8 8 3 21 -13z m-3861 2 c0 -2 -10 -9 -22 -15
-22 -11 -22 -10 -4 4 21 17 26 19 26 11z m155 -45 c-10 -11 -22 -20 -28 -20
-5 0 1 9 14 20 31 25 37 25 14 0z m650 0 c10 -11 16 -20 13 -20 -3 0 -13 9
-23 20 -10 11 -16 20 -13 20 3 0 13 -9 23 -20z m-708 -6 c-3 -3 -12 -4 -19 -1
-8 3 -5 6 6 6 11 1 17 -2 13 -5z m356 -11 c-7 -2 -19 -2 -25 0 -7 3 -2 5 12 5
14 0 19 -2 13 -5z m685 -55 c72 3 107 -14 128 -65 14 -32 15 -32 77 -33 102 0
98 2 94 -47 -3 -27 -12 -51 -23 -61 -17 -16 -17 -16 -5 1 24 31 -2 47 -80 47
l-69 0 -36 50 c-35 49 -37 50 -73 43 -46 -9 -90 -7 -106 7 -6 5 -15 7 -19 3
-10 -10 1 57 14 92 l12 30 13 -35 12 -35 61 3z m2811 48 c9 -11 9 -16 -1 -22
-7 -4 -10 -4 -6 1 4 4 3 14 -3 22 -6 7 -9 13 -6 13 2 0 10 -6 16 -14z m-3719
-11 c22 -26 48 -27 81 -3 l31 23 22 -27 c16 -21 30 -28 58 -28 44 0 59 -17 56
-61 -2 -26 1 -34 17 -37 33 -6 38 -18 20 -52 -20 -38 -14 -60 16 -60 19 0 21
-4 16 -34 -4 -24 -1 -39 9 -47 23 -19 17 -26 -27 -32 -33 -4 -48 -1 -70 15
-22 17 -38 20 -79 16 -38 -4 -61 0 -92 15 -36 18 -45 19 -82 8 -22 -7 -48 -12
-56 -11 -8 1 -40 3 -70 4 -70 4 -105 18 -126 51 -13 20 -14 28 -4 40 8 9 9 28
5 55 -8 50 6 73 41 64 20 -5 26 -1 35 25 15 43 42 56 81 40 28 -12 31 -10 55
19 27 35 44 40 63 17z m280 -10 c13 -14 21 -25 18 -25 -2 0 -15 11 -28 25 -13
14 -21 25 -18 25 2 0 15 -11 28 -25z m385 -45 c27 -27 47 -50 44 -50 -3 0 -27
23 -54 50 -27 28 -47 50 -44 50 3 0 27 -22 54 -50z m3105 25 c13 -14 21 -25
18 -25 -2 0 -15 11 -28 25 -13 14 -21 25 -18 25 2 0 15 -11 28 -25z m-3458
-40 c3 -13 1 -22 -3 -19 -9 5 -13 44 -5 44 2 0 6 -11 8 -25z m3383 -3 c-3 -3
-11 0 -18 7 -9 10 -8 11 6 5 10 -3 15 -9 12 -12z m-4185 -7 c0 -2 -10 -9 -22
-15 -22 -11 -22 -10 -4 4 21 17 26 19 26 11z m4370 -50 c30 -30 52 -55 49 -55
-2 0 -29 25 -59 55 -30 30 -52 55 -49 55 2 0 29 -25 59 -55z m-4203 -27 c-2
-13 -4 -5 -4 17 -1 22 1 32 4 23 2 -10 2 -28 0 -40z m1110 20 c-3 -8 -6 -5 -6
6 -1 11 2 17 5 13 3 -3 4 -12 1 -19z m3018 2 c10 -11 16 -20 13 -20 -3 0 -13
9 -23 20 -10 11 -16 20 -13 20 3 0 13 -9 23 -20z m33 -55 c-3 -3 -9 2 -12 12
-6 14 -5 15 5 6 7 -7 10 -15 7 -18z m-4491 2 c0 -7 -9 -13 -19 -13 -18 0 -18
1 -2 13 10 7 18 13 19 13 1 0 2 -6 2 -13z m1474 -14 c13 -16 12 -17 -3 -4 -10
7 -18 15 -18 17 0 8 8 3 21 -13z m-460 -10 c13 -16 12 -17 -3 -4 -10 7 -18 15
-18 17 0 8 8 3 21 -13z m3404 -181 c-8 -42 -17 -77 -18 -79 -2 -1 -21 2 -43 8
-93 26 -315 -14 -363 -65 -20 -21 -22 -33 -19 -90 1 -36 2 -66 0 -66 -1 0 -19
9 -39 20 -52 28 -91 25 -145 -9 -84 -53 -128 -136 -128 -242 l0 -58 -35 15
c-103 43 -385 -16 -424 -89 -12 -22 -12 -38 -4 -84 6 -32 10 -59 8 -61 -1 -2
-19 7 -39 19 -78 46 -165 2 -224 -112 -31 -58 -34 -70 -30 -135 l3 -72 -35 28
c-19 16 -62 53 -95 84 -70 63 -73 56 60 127 44 24 106 67 138 98 31 30 77 68
101 85 24 17 65 48 90 69 25 22 78 52 117 68 39 16 92 44 118 63 25 19 73 46
106 60 35 16 81 48 110 77 29 27 97 75 155 107 120 67 483 305 580 380 l65 51
3 -61 c2 -33 -4 -94 -13 -136z m-2806 158 c29 -22 48 -29 65 -24 13 3 40 -2
61 -10 20 -9 42 -13 49 -10 6 3 -5 -9 -23 -27 -21 -19 -37 -27 -39 -21 -2 7
-25 12 -56 12 -45 0 -56 4 -81 30 -18 19 -39 30 -56 30 -35 0 -48 19 -24 37
29 20 58 16 104 -17z m-1292 -27 c-3 -10 -5 -2 -5 17 0 19 2 27 5 18 2 -10 2
-26 0 -35z m968 -23 c27 -27 47 -50 44 -50 -3 0 -27 23 -54 50 -27 28 -47 50
-44 50 3 0 27 -22 54 -50z m-1484 -23 c-6 -8 -8 -17 -4 -21 4 -4 0 -4 -10 0
-17 6 -17 7 0 20 23 17 28 18 14 1z m1877 -65 c7 7 12 9 12 6 0 -3 -6 -10 -13
-16 -10 -9 -24 -1 -58 36 l-44 47 45 -43 c36 -33 49 -39 58 -30z m3068 26 l29
-33 -32 29 c-31 28 -38 36 -30 36 2 0 16 -15 33 -32z m-4354 4 c-7 -2 -9 -9
-5 -15 3 -7 2 -8 -2 -4 -16 14 -14 36 3 29 10 -4 12 -7 4 -10z m-44 1 c-10 -2
-28 -2 -40 0 -13 2 -5 4 17 4 22 1 32 -1 23 -4z m699 -15 c-3 -8 -6 -5 -6 6
-1 11 2 17 5 13 3 -3 4 -12 1 -19z m-523 6 c9 -3 16 -13 16 -20 0 -27 29 -26
61 0 38 33 63 33 106 0 l33 -25 26 20 c35 27 53 26 95 -5 30 -22 40 -25 86
-19 53 6 53 6 74 -30 22 -37 22 -37 74 -30 54 6 73 -4 88 -48 6 -15 14 -17 50
-12 50 8 73 -10 79 -60 3 -28 6 -30 47 -31 59 0 85 -31 76 -86 -7 -37 -6 -38
22 -38 51 0 73 -25 73 -81 0 -48 1 -49 29 -49 38 0 51 -32 24 -62 -17 -20 -17
-21 1 -32 11 -6 28 -19 38 -29 19 -18 18 -19 -9 -51 -15 -18 -43 -39 -61 -45
-35 -13 -62 -58 -62 -103 0 -13 -9 -34 -20 -48 -24 -31 -25 -86 -2 -124 17
-29 17 -29 -11 -58 -24 -23 -37 -28 -78 -28 -56 0 -98 -18 -127 -54 -13 -18
-25 -23 -41 -19 -32 8 -75 -14 -110 -58 -18 -22 -41 -39 -52 -39 -47 0 -119
-61 -119 -101 0 -31 -14 -22 -31 20 -35 83 -178 142 -224 91 -12 -13 -31 -20
-54 -20 -49 0 -97 -31 -112 -74 -8 -23 -23 -39 -42 -47 -35 -15 -67 -63 -67
-101 0 -18 -7 -29 -20 -33 -23 -7 -50 -53 -50 -85 0 -31 27 -78 49 -85 12 -4
21 -19 25 -43 6 -40 41 -80 89 -100 16 -7 27 -19 27 -31 0 -34 48 -63 100 -60
82 4 90 2 90 -28 0 -16 9 -43 21 -62 17 -28 18 -39 10 -64 -6 -16 -11 -43 -11
-60 l0 -29 -42 37 c-86 76 -638 628 -808 808 -205 217 -224 247 -215 329 5 50
3 63 -20 101 -32 56 -32 67 6 100 27 23 30 32 25 60 -24 123 -17 151 47 183
40 21 47 32 45 69 -3 52 11 75 60 98 43 20 52 31 82 97 4 8 21 18 38 22 23 6
37 20 53 49 15 31 24 39 37 34 51 -21 52 -21 95 45 23 35 38 39 84 25 18 -6
26 0 48 35 29 45 25 44 121 25 26 -6 36 -1 66 29 37 37 45 40 72 30z m4042
-33 c-8 -54 14 -73 76 -65 56 8 64 -3 41 -51 l-18 -37 28 -24 c16 -14 41 -24
58 -24 33 0 35 -5 13 -49 -19 -38 -10 -54 42 -76 25 -10 35 -23 49 -64 l16
-50 -31 -58 c-17 -32 -44 -74 -60 -93 l-29 -35 -1 88 c0 133 -26 171 -153 227
-39 17 -54 20 -78 11 -34 -12 -34 -11 -44 60 -3 26 -14 63 -24 82 -10 20 -16
39 -12 42 3 4 13 30 21 58 13 43 23 56 55 74 54 31 59 29 51 -16z m127 -8 c-7
-2 -19 -2 -25 0 -7 3 -2 5 12 5 14 0 19 -2 13 -5z m-4538 -11 c-53 -42 -60
-46 -33 -19 16 15 31 27 35 27 4 0 3 -3 -2 -8z m70 -2 c-3 -5 -12 -10 -18 -10
-7 0 -6 4 3 10 19 12 23 12 15 0z m918 3 c-7 -2 -19 -2 -25 0 -7 3 -2 5 12 5
14 0 19 -2 13 -5z m3658 -10 c13 -16 12 -17 -3 -4 -10 7 -18 15 -18 17 0 8 8
3 21 -13z m-3291 -88 c0 -1 -7 -2 -15 -2 -8 0 -13 3 -10 6 3 2 -12 23 -32 45
-37 40 -36 39 10 -4 26 -24 47 -45 47 -45z m-282 30 c-3 -3 -9 2 -12 12 -6 14
-5 15 5 6 7 -7 10 -15 7 -18z m3539 -7 c-3 -7 -5 -2 -5 12 0 14 2 19 5 13 2
-7 2 -19 0 -25z m-3463 3 c3 -4 -6 -6 -19 -3 -14 2 -25 6 -25 8 0 8 39 4 44
-5z m-1250 -10 c4 -5 -3 -7 -14 -4 -23 6 -26 13 -6 13 8 0 17 -4 20 -9z m-328
-23 c16 -19 16 -20 1 -9 -9 7 -32 17 -50 21 l-32 8 31 1 c21 1 37 -6 50 -21z
m4637 -10 c10 -5 17 -13 15 -17 -2 -5 -18 -46 -37 -92 l-34 -84 -58 0 -58 0
-82 77 c-70 67 -78 78 -62 86 85 44 257 60 316 30z m-4878 2 c-3 -5 -11 -10
-16 -10 -6 0 -7 5 -4 10 3 6 11 10 16 10 6 0 7 -4 4 -10z m119 1 c4 -5 -3 -7
-14 -4 -23 6 -26 13 -6 13 8 0 17 -4 20 -9z m-94 -4 c0 -2 -10 -12 -22 -23
l-23 -19 19 23 c18 21 26 27 26 19z m2031 -14 c13 -16 12 -17 -3 -4 -10 7 -18
15 -18 17 0 8 8 3 21 -13z m-1587 -27 c-3 -9 -16 -16 -28 -15 -21 0 -21 0 2 9
12 5 22 15 22 21 0 7 2 10 5 7 3 -3 3 -13 -1 -22z m-256 2 c5 -7 12 -24 14
-38 3 -22 7 -25 35 -22 29 3 35 -1 50 -34 14 -29 15 -38 5 -42 -50 -17 -101
-99 -87 -141 4 -15 -1 -24 -22 -34 -66 -35 -92 -99 -73 -188 10 -47 10 -62 0
-74 -19 -22 -57 -19 -65 6 -6 18 -12 20 -45 14 -34 -6 -40 -3 -60 25 -12 17
-38 39 -58 48 -36 17 -37 20 -35 65 2 26 -2 47 -7 47 -5 0 -17 11 -26 25 -15
23 -15 27 5 58 11 19 18 37 15 40 -4 3 -3 22 0 41 5 24 13 36 30 40 15 4 28
19 39 46 14 36 19 40 51 40 31 0 38 4 50 35 17 40 47 46 79 18 18 -17 20 -17
39 10 21 29 49 35 66 15z m1692 -4 c0 -2 -7 -4 -15 -4 -8 0 -15 4 -15 10 0 5
7 7 15 4 8 -4 15 -8 15 -10z m3458 -25 c-3 -8 -7 -3 -11 10 -4 17 -3 21 5 13
5 -5 8 -16 6 -23z m-3238 -4 c13 -14 21 -25 18 -25 -2 0 -15 11 -28 25 -13 14
-21 25 -18 25 2 0 15 -11 28 -25z m3277 3 c-3 -8 -6 -5 -6 6 -1 11 2 17 5 13
3 -3 4 -12 1 -19z m-5027 -28 c-6 -11 -13 -20 -16 -20 -2 0 0 9 6 20 6 11 13
20 16 20 2 0 0 -9 -6 -20z m1628 -15 c-3 -3 -9 2 -12 12 -6 14 -5 15 5 6 7 -7
10 -15 7 -18z m3353 2 c-10 -9 -11 -8 -5 6 3 10 9 15 12 12 3 -3 0 -11 -7 -18z
m-5468 -2 c-3 -9 -8 -14 -10 -11 -3 3 -2 9 2 15 9 16 15 13 8 -4z m5525 -61
l-3 -26 -25 28 c-21 25 -22 26 -2 10 l22 -19 1 44 c2 30 3 35 6 17 2 -16 3
-40 1 -54z m-5603 56 c-3 -5 -16 -15 -28 -21 -19 -9 -19 -8 3 10 28 23 34 26
25 11z m2425 -55 c19 -19 32 -35 29 -35 -3 0 -20 16 -39 35 -19 19 -32 35 -29
35 3 0 20 -16 39 -35z m2260 -52 c46 -30 57 -42 50 -53 -5 -8 -10 -31 -10 -51
l0 -35 -150 -76 c-114 -57 -150 -71 -155 -61 -3 8 -5 49 -5 91 0 95 21 144 80
195 66 56 87 55 190 -10z m-2415 17 c10 -11 16 -20 13 -20 -3 0 -13 9 -23 20
-10 11 -16 20 -13 20 3 0 13 -9 23 -20z m-2268 -12 c-3 -8 -6 -5 -6 6 -1 11 2
17 5 13 3 -3 4 -12 1 -19z m-157 -3 c-7 -8 -17 -15 -23 -15 -6 0 -2 7 9 15 25
19 30 19 14 0z m5468 -15 c20 -11 46 -27 57 -36 20 -15 19 -16 -24 -54 -24
-21 -65 -48 -91 -60 l-47 -22 -59 30 c-57 29 -59 31 -59 70 l0 41 65 25 c80
30 110 32 158 6z m-2782 -32 l29 -33 -32 29 c-31 28 -38 36 -30 36 2 0 16 -15
33 -32z m2492 12 c18 -11 35 -27 39 -36 18 -49 -77 -114 -167 -114 -125 0
-158 84 -56 145 53 32 136 34 184 5z m-5283 -31 c-4 -6 3 -23 16 -37 22 -24
21 -24 -9 2 -23 22 -29 32 -20 38 17 11 20 10 13 -3z m238 -24 c-3 -9 -8 -14
-10 -11 -3 3 -2 9 2 15 9 16 15 13 8 -4z m2642 -35 c10 -11 16 -20 13 -20 -3
0 -13 9 -23 20 -10 11 -16 20 -13 20 3 0 13 -9 23 -20z m-2658 -22 c-3 -7 -5
-2 -5 12 0 14 2 19 5 13 2 -7 2 -19 0 -25z m2400 -25 c-3 -10 -5 -4 -5 12 0
17 2 24 5 18 2 -7 2 -21 0 -30z m-2383 -9 c3 -8 2 -12 -4 -9 -6 3 -10 10 -10
16 0 14 7 11 14 -7z m2742 -36 l29 -33 -32 29 c-31 28 -38 36 -30 36 2 0 16
-15 33 -32z m-337 -22 c-2 -2 -13 8 -23 22 l-19 27 24 -22 c12 -12 21 -24 18
-27z m-2454 -26 c27 -27 47 -50 44 -50 -3 0 -27 23 -54 50 -27 28 -47 50 -44
50 3 0 27 -22 54 -50z m72 3 c-3 -10 -5 -2 -5 17 0 19 2 27 5 18 2 -10 2 -26
0 -35z m4847 26 c27 -7 55 -7 77 -1 31 8 38 5 77 -26 45 -37 77 -86 67 -102
-15 -25 -119 -42 -219 -37 -96 5 -226 37 -226 56 0 13 37 42 103 82 71 44 65
42 121 28z m-2294 -3 c0 -2 -18 -6 -39 -8 -22 -2 -37 0 -35 4 5 8 74 11 74 4z
m-143 -22 c-3 -3 -12 -4 -19 -1 -8 3 -5 6 6 6 11 1 17 -2 13 -5z m1916 -6 c15
-12 13 -21 -16 -112 l-32 -99 -80 0 -80 -1 -81 82 -81 81 48 21 c71 30 114 38
215 39 58 1 96 -3 107 -11z m-1658 -16 c-3 -3 -11 0 -18 7 -9 10 -8 11 6 5 10
-3 15 -9 12 -12z m135 -7 c13 -14 21 -25 18 -25 -2 0 -15 11 -28 25 -13 14
-21 25 -18 25 2 0 15 -11 28 -25z m-95 -15 c10 -11 16 -20 13 -20 -3 0 -13 9
-23 20 -10 11 -16 20 -13 20 3 0 13 -9 23 -20z m-133 -17 c25 -24 31 -26 49
-15 28 18 47 1 55 -49 6 -35 9 -39 36 -39 30 0 30 0 24 -44 -6 -39 -4 -46 15
-56 17 -9 20 -18 15 -41 -4 -22 -1 -32 14 -41 32 -20 24 -25 -42 -30 -51 -4
-66 -1 -82 14 -29 27 -89 27 -119 0 -16 -14 -22 -14 -67 2 -55 20 -95 16 -133
-14 -16 -12 -28 -16 -38 -9 -8 5 -26 9 -40 9 -36 0 -76 71 -60 106 6 13 15 24
19 24 5 0 12 22 16 49 7 56 21 71 61 68 24 -2 29 3 37 30 10 39 40 51 73 29
27 -18 55 -21 55 -7 0 19 32 41 58 41 15 0 38 -12 54 -27z m-2567 -23 c10 -11
16 -20 13 -20 -3 0 -13 9 -23 20 -10 11 -16 20 -13 20 3 0 13 -9 23 -20z m109
-46 c3 -8 2 -12 -4 -9 -6 3 -10 10 -10 16 0 14 7 11 14 -7z m2667 -1 c13 -16
12 -17 -3 -4 -17 13 -22 21 -14 21 2 0 10 -8 17 -17z m179 -38 c13 -14 21 -25
18 -25 -2 0 -15 11 -28 25 -13 14 -21 25 -18 25 2 0 15 -11 28 -25z m-2724
-17 l19 -23 -25 20 c-14 11 -27 21 -29 22 -2 2 0 3 6 3 5 0 18 -10 29 -22z
m51 -24 c-3 -3 -12 -4 -19 -1 -8 3 -5 6 6 6 11 1 17 -2 13 -5z m2543 -59 c0
-5 -9 5 -20 23 -26 42 -26 56 0 17 11 -16 20 -34 20 -40z m1082 12 c66 -34 76
-43 67 -58 -5 -10 -9 -26 -9 -36 0 -14 -36 -35 -147 -85 -81 -37 -149 -65
-152 -63 -11 12 -12 126 -1 160 14 42 73 113 105 125 26 11 45 5 137 -43z
m-877 23 c10 -11 16 -20 13 -20 -3 0 -13 9 -23 20 -10 11 -16 20 -13 20 3 0
13 -9 23 -20z m1524 -51 c34 -22 68 -50 76 -62 14 -20 12 -24 -21 -58 -20 -20
-58 -49 -85 -63 -44 -25 -50 -26 -71 -12 -13 8 -45 20 -73 26 -27 5 -60 12
-72 15 l-22 5 24 36 c14 20 25 49 25 63 0 22 10 32 58 58 31 18 67 33 78 33
12 0 49 -18 83 -41z m-274 -9 c14 -13 25 -31 25 -40 0 -50 -88 -100 -176 -100
-48 0 -59 4 -85 29 -16 16 -29 34 -29 39 0 16 42 63 74 84 46 28 155 22 191
-12z m-3968 -22 c-3 -7 -5 -2 -5 12 0 14 2 19 5 13 2 -7 2 -19 0 -25z m2803 7
c13 -14 21 -25 18 -25 -2 0 -15 11 -28 25 -13 14 -21 25 -18 25 2 0 15 -11 28
-25z m-275 6 c-3 -5 -1 -12 5 -16 5 -3 10 -11 10 -18 0 -6 -6 -2 -14 8 -13 18
-13 35 0 35 3 0 3 -4 -1 -9z m-2538 -83 c-3 -7 -5 -2 -5 12 0 14 2 19 5 13 2
-7 2 -19 0 -25z m2893 7 c13 -14 21 -25 18 -25 -2 0 -15 11 -28 25 -13 14 -21
25 -18 25 2 0 15 -11 28 -25z m-750 -30 c33 -19 84 -19 100 0 20 24 66 18 89
-11 19 -24 23 -25 52 -15 43 15 101 14 123 -2 9 -7 23 -24 30 -37 8 -16 19
-24 32 -22 105 19 139 9 169 -48 14 -26 21 -30 59 -30 53 0 68 -16 64 -67 -3
-38 -3 -38 34 -40 21 -1 47 -7 58 -13 28 -15 43 -56 30 -80 -16 -29 -2 -50 34
-50 21 0 40 -8 55 -24 20 -22 22 -31 16 -75 l-7 -51 31 -6 c46 -9 58 -39 35
-82 -18 -34 -18 -35 0 -46 72 -43 81 -67 41 -114 -14 -17 -25 -34 -25 -40 0
-5 11 -17 25 -26 32 -21 32 -39 -2 -66 -23 -18 -25 -24 -15 -38 21 -29 32 -61
26 -76 -3 -8 -50 -44 -103 -79 -305 -203 -541 -313 -793 -369 -135 -30 -392
-33 -506 -5 -152 37 -313 112 -455 214 -154 112 -198 184 -163 268 15 35 15
38 -9 69 -37 49 -33 91 11 132 l37 33 -27 31 c-44 53 -33 125 24 155 28 14 30
19 24 54 -10 60 11 108 59 138 52 33 67 51 67 79 0 37 45 80 95 93 36 9 51 19
67 47 25 43 53 55 92 41 26 -9 31 -7 54 23 33 42 81 62 130 54 33 -5 41 -2 74
30 41 40 79 46 117 20 21 -15 24 -15 49 9 43 39 64 44 102 22z m513 -12 c-7
-2 -19 -2 -25 0 -7 3 -2 5 12 5 14 0 19 -2 13 -5z m343 -55 l29 -33 -32 29
c-31 28 -38 36 -30 36 2 0 16 -15 33 -32z m848 -9 c32 1 43 -5 72 -37 19 -20
41 -49 49 -64 14 -26 14 -28 -8 -42 -101 -67 -270 -64 -385 6 -41 25 -38 29
74 98 70 43 84 48 119 43 22 -3 57 -5 79 -4z m-979 -39 c3 -6 -1 -7 -9 -4 -18
7 -21 14 -7 14 6 0 13 -4 16 -10z m200 -10 c10 -11 16 -20 13 -20 -3 0 -13 9
-23 20 -10 11 -16 20 -13 20 3 0 13 -9 23 -20z m111 -102 l29 -33 -32 29 c-18
17 -33 31 -33 33 0 8 8 1 36 -29z m-2000 -17 c63 -48 83 -68 90 -95 5 -21 0
-31 -26 -53 -40 -33 -60 -79 -60 -135 0 -34 -6 -48 -31 -74 -39 -40 -49 -105
-25 -152 21 -41 20 -49 -5 -63 -16 -8 -27 -8 -44 1 -17 9 -28 9 -43 1 -11 -6
-32 -11 -46 -11 -20 0 -27 7 -34 33 -6 25 -19 37 -58 57 -44 23 -49 29 -52 62
-3 29 -11 44 -38 64 -47 36 -47 74 1 103 29 17 35 26 35 53 0 43 8 54 53 73
28 11 37 21 37 39 0 13 10 36 22 51 19 25 25 27 70 22 40 -5 50 -3 55 11 18
50 44 54 99 13z m1761 23 c-3 -3 -12 -4 -19 -1 -8 3 -5 6 6 6 11 1 17 -2 13
-5z m64 -31 c13 -16 12 -17 -3 -4 -10 7 -18 15 -18 17 0 8 8 3 21 -13z m39
-58 c0 -5 -5 -3 -10 5 -5 8 -10 20 -10 25 0 6 5 3 10 -5 5 -8 10 -19 10 -25z
m230 0 c13 -14 21 -25 18 -25 -2 0 -15 11 -28 25 -13 14 -21 25 -18 25 2 0 15
-11 28 -25z m155 -145 c27 -27 47 -50 44 -50 -3 0 -27 23 -54 50 -27 28 -47
50 -44 50 3 0 27 -22 54 -50z m-260 -70 c3 -6 -1 -7 -9 -4 -18 7 -21 14 -7 14
6 0 13 -4 16 -10z m36 -37 c13 -16 12 -17 -3 -4 -10 7 -18 15 -18 17 0 8 8 3
21 -13z m439 -100 c0 -8 -9 0 -50 45 l-45 47 48 -45 c26 -24 47 -45 47 -47z
m-416 1 c3 -8 2 -12 -4 -9 -6 3 -10 10 -10 16 0 14 7 11 14 -7z m356 -118 c0
-2 -8 -10 -17 -17 -16 -13 -17 -12 -4 4 13 16 21 21 21 13z m-313 -28 c-3 -8
-6 -5 -6 6 -1 11 2 17 5 13 3 -3 4 -12 1 -19z m-11 -38 c0 -12 -4 -16 -9 -11
-5 5 -6 14 -3 20 10 15 12 14 12 -9z m11 -82 c-2 -13 -4 -5 -4 17 -1 22 1 32
4 23 2 -10 2 -28 0 -40z m63 -32 c0 -2 -8 -10 -17 -17 -16 -13 -17 -12 -4 4
13 16 21 21 21 13z"/>
<path d="M5703 7150 c-26 -11 -31 -45 -8 -54 18 -6 60 8 70 24 8 13 -12 40
-29 39 -6 0 -21 -4 -33 -9z"/>
<path d="M5926 7145 c-8 -9 -13 -22 -10 -29 7 -19 53 -38 76 -30 30 9 19 45
-19 61 -27 11 -34 10 -47 -2z"/>
<path d="M5529 6989 c-21 -13 -4 -43 29 -53 26 -7 36 -6 49 7 9 8 13 22 10 30
-6 16 -70 27 -88 16z"/>
<path d="M5807 6985 c-7 -17 37 -55 63 -55 29 0 34 32 10 52 -27 22 -66 23
-73 3z"/>
<path d="M5258 6849 c-22 -12 -24 -45 -4 -52 19 -8 77 9 87 24 20 33 -40 53
-83 28z"/>
<path d="M5433 6793 c-22 -8 -14 -40 13 -58 30 -19 54 -14 54 13 0 28 -40 54
-67 45z"/>
<path d="M4950 6697 c-14 -7 -25 -19 -25 -27 0 -22 87 -26 104 -6 32 38 -24
61 -79 33z"/>
<path d="M5123 6623 c-4 -11 3 -24 21 -40 33 -28 60 -27 64 4 2 16 -5 26 -27
37 -38 20 -50 20 -58 -1z"/>
<path d="M4553 6479 c-23 -7 -33 -16 -33 -29 0 -17 7 -20 43 -20 51 0 70 11
65 36 -4 22 -30 26 -75 13z"/>
<path d="M4787 6475 c-4 -8 6 -25 25 -40 24 -20 33 -23 44 -14 20 17 17 36 -8
53 -28 20 -54 20 -61 1z"/>
<path d="M2790 6910 c-18 -33 -3 -62 28 -58 21 2 28 9 30 32 5 45 -38 64 -58
26z"/>
<path d="M2752 6768 c-30 -30 -2 -94 35 -81 13 5 38 -62 28 -77 -8 -13 -41
-13 -67 1 -31 17 -47 -5 -23 -31 15 -16 29 -20 64 -18 41 3 48 7 60 36 8 18
22 32 31 32 10 0 29 9 44 21 30 24 36 81 12 115 -20 26 -31 10 -31 -44 0 -43
-2 -47 -27 -50 -27 -3 -63 32 -52 50 3 5 3 20 0 34 -5 18 -13 24 -34 24 -15 0
-33 -5 -40 -12z"/>
<path d="M2552 6743 c-14 -26 3 -53 34 -53 14 0 27 7 31 16 15 39 -46 73 -65
37z"/>
<path d="M6412 5759 c-13 -5 -27 -22 -33 -37 -8 -23 -15 -28 -33 -25 -29 6
-66 -37 -66 -77 0 -19 -7 -30 -25 -38 -46 -21 -53 -82 -11 -104 11 -6 22 -12
24 -13 2 -2 -11 -29 -30 -61 -29 -53 -33 -68 -36 -156 -5 -117 17 -202 76
-293 46 -72 141 -161 214 -203 178 -102 426 -120 579 -41 62 31 127 102 162
177 76 163 31 416 -104 577 -133 161 -379 247 -538 191 -24 -9 -45 -15 -46
-14 -63 108 -91 132 -133 117z m75 -92 c36 -72 35 -112 -5 -148 -27 -24 -41
-29 -86 -29 -53 0 -112 14 -131 32 -15 14 16 29 48 23 35 -6 44 14 22 49 -18
27 -13 66 9 66 7 0 21 -9 31 -20 30 -33 49 -26 42 16 -7 43 7 76 29 67 8 -3
26 -28 41 -56z m361 -73 c89 -29 151 -66 206 -122 l38 -40 -51 -49 c-43 -42
-51 -55 -51 -87 0 -43 22 -91 49 -106 11 -5 38 -10 61 -10 32 0 48 6 70 29
l29 29 12 -56 c27 -130 -4 -275 -75 -360 -114 -134 -390 -150 -608 -35 -183
96 -315 312 -292 477 7 48 31 130 50 167 12 25 14 26 67 16 71 -13 120 -3 162
35 25 21 37 42 41 70 5 31 13 42 38 53 53 23 167 18 254 -11z m287 -230 c29
-45 30 -87 2 -120 -22 -25 -28 -27 -53 -19 -58 21 -63 87 -12 143 28 29 42 28
63 -4z"/>
<path d="M6783 5464 c-18 -29 -9 -56 21 -62 37 -8 62 48 34 76 -19 19 -36 14
-55 -14z"/>
<path d="M6661 5369 c-56 -45 -60 -53 -32 -69 50 -26 121 8 121 59 0 25 -15
51 -31 51 -3 0 -29 -18 -58 -41z"/>
<path d="M6512 5288 c-29 -29 -7 -78 35 -78 35 0 52 43 28 70 -20 23 -45 26
-63 8z"/>
<path d="M6516 5055 c-57 -20 -60 -26 -46 -85 23 -97 93 -146 164 -116 98 41
83 176 -22 206 -46 12 -48 12 -96 -5z m104 -50 c34 -18 44 -43 31 -78 -21 -56
-94 -44 -138 22 -29 42 -29 49 0 61 34 13 75 12 107 -5z"/>
<path d="M7619 6046 c-16 -35 -5 -58 27 -54 35 4 53 31 38 56 -18 28 -52 27
-65 -2z"/>
<path d="M7491 5958 l-54 -41 23 -19 c29 -24 61 -23 94 3 28 22 35 66 14 87
-17 17 -17 17 -77 -30z"/>
<path d="M7348 5889 c-45 -26 -5 -104 41 -80 36 20 36 62 0 81 -21 12 -20 12
-41 -1z"/>
<path d="M7325 5650 c-40 -16 -46 -33 -34 -91 21 -100 99 -145 178 -105 73 38
65 153 -13 190 -36 17 -98 20 -131 6z m121 -56 c27 -16 35 -46 20 -76 -9 -18
-21 -24 -53 -26 -37 -3 -44 1 -66 30 -14 18 -28 43 -31 55 -6 19 -2 24 26 31
37 11 73 6 104 -14z"/>
<path d="M4735 5174 c-63 -68 16 -170 88 -114 35 28 35 68 1 109 -32 38 -57
39 -89 5z"/>
<path d="M4713 4886 c-139 -45 -223 -165 -223 -314 1 -114 59 -201 172 -256
164 -80 342 -43 423 88 28 47 30 55 30 155 0 90 -4 113 -23 152 -57 116 -149
180 -266 186 -42 2 -88 -3 -113 -11z m207 -66 c51 -26 115 -101 134 -157 22
-64 20 -168 -3 -220 -39 -86 -154 -135 -266 -114 -72 13 -168 65 -204 108 -44
54 -60 125 -45 201 5 27 9 30 25 22 32 -17 94 -12 123 11 l27 21 29 -27 c40
-38 61 -84 49 -107 -12 -21 -78 -25 -109 -6 -31 19 -48 -3 -27 -36 46 -69 188
-30 191 54 1 26 5 30 28 30 63 0 96 45 78 109 -21 79 -66 80 -57 0 5 -42 3
-49 -14 -54 -12 -4 -36 3 -63 19 -63 37 -69 47 -50 85 9 18 13 42 10 55 -3 13
-2 26 2 30 11 12 101 -3 142 -24z"/>
<path d="M4130 4828 c-34 -55 -2 -118 60 -118 57 0 80 72 39 124 -30 38 -73
36 -99 -6z"/>
<path d="M5850 4108 c-26 -29 -26 -82 1 -109 28 -28 76 -22 102 13 50 68 -45
158 -103 96z"/>
<path d="M5860 3827 c-63 -14 -132 -52 -172 -94 -73 -77 -103 -226 -65 -325
23 -58 98 -130 175 -166 49 -23 70 -27 152 -27 82 0 102 4 144 25 103 52 152
147 144 279 -13 208 -186 349 -378 308z m183 -76 c86 -53 137 -139 145 -242 8
-113 -30 -182 -123 -225 -126 -59 -328 5 -392 125 -23 44 -31 126 -17 178 6
21 8 21 27 8 29 -21 66 -19 105 5 18 11 38 20 45 20 18 -1 77 -83 77 -108 0
-40 -66 -56 -108 -26 -40 28 -59 -9 -22 -46 15 -15 33 -20 69 -20 65 0 111 35
111 86 0 26 3 32 15 28 21 -8 74 15 85 37 27 49 -5 141 -44 126 -14 -6 -16
-15 -10 -57 l7 -50 -30 0 c-31 0 -113 53 -113 74 0 7 5 17 11 23 6 6 9 30 7
53 l-4 42 62 -5 c39 -3 76 -13 97 -26z"/>
<path d="M5255 3774 c-42 -45 -30 -101 25 -124 28 -11 34 -11 58 7 41 31 42
83 2 123 -27 27 -56 25 -85 -6z"/>
</g>
</svg>
